 <svg width="55" height="54" viewBox="0 0 55 54" fill="none" xmlns="http://www.w3.org/2000/svg">
                        <path
                            d="M27.4999 53.6666C12.7723 53.6666 0.833252 41.7275 0.833252 26.9999C0.833252 12.2723 12.7723 0.333252 27.4999 0.333252C42.2275 0.333252 54.1666 12.2723 54.1666 26.9999C54.1504 41.7208 42.2208 53.6504 27.4999 53.6666ZM27.4573 48.3333H27.4999C39.2778 48.3215 48.8178 38.7672 48.8119 26.9893C48.806 15.2114 39.2565 5.6666 27.4786 5.6666C15.7007 5.6666 6.15114 15.2114 6.14525 26.9893C6.13937 38.7672 15.6793 48.3215 27.4573 48.3333ZM22.1666 40.3333L11.4999 29.6666L15.2599 25.9066L22.1666 32.7866L39.7399 15.2133L43.4999 18.9999L22.1666 40.3333Z"
                            fill="#5CB85C" />
                    </svg>