                <svg width="403" height="64" viewBox="0 0 403 64" fill="none" xmlns="http://www.w3.org/2000/svg">
                    <path fill-rule="evenodd" clip-rule="evenodd"
                        d="M34.2599 24.3369H46.6677L44.454 26.2398H34.0197C34.179 25.6183 34.2597 24.9789 34.2599 24.3369ZM1.33936 24.3369H13.7472C13.7473 24.9789 13.8281 25.6183 13.9873 26.2398H3.55307L1.33936 24.3369Z"
                        fill="#187CEE" />
                    <path fill-rule="evenodd" clip-rule="evenodd"
                        d="M34.1829 26.5601H44.7825L42.5348 28.4629H33.4079C33.7478 27.8657 34.0084 27.2259 34.1829 26.5601ZM3.22681 26.5601H13.8287C14.0032 27.2259 14.2637 27.8657 14.6036 28.4629H5.47679L3.22681 26.5601Z"
                        fill="white" />
                    <path fill-rule="evenodd" clip-rule="evenodd"
                        d="M5.11206 28.7832H14.4179C14.8255 29.4833 15.3265 30.1235 15.9066 30.6861H7.40509L5.11206 28.7832ZM33.5916 28.7832H42.8974L40.6044 30.6861H32.1029C32.6831 30.1236 33.184 29.4833 33.5916 28.7832Z"
                        fill="#5CB85C" />
                    <path
                        d="M12.0097 58.9799C10.4304 57.3925 9.17645 55.5062 8.32103 53.4288C7.46561 51.3514 7.02508 49.124 7.02436 46.8743V31.3219L0 24.2319L0.784419 23.4381L7.031 17.1304V7.08999H16.9806L24.005 0L31.0282 7.08999H40.9756V17.1304L48 24.2204L40.9756 31.3104V46.8629C40.9752 49.1126 40.5344 51.34 39.679 53.4174C38.8235 55.4948 37.5709 57.3812 35.9914 58.9685C34.4185 60.5628 32.549 61.828 30.4905 62.6914C28.4321 63.5549 26.2241 63.9995 23.995 64C21.7682 63.9998 19.564 63.5562 17.5072 62.6948C15.4505 61.8334 13.5825 60.5711 12.0097 58.9799ZM9.24485 46.8743C9.24589 48.8298 9.62912 50.7657 10.3734 52.5712C11.1176 54.3766 12.2083 56.0159 13.5818 57.395C14.9481 58.7813 16.5716 59.8815 18.3603 60.6327C20.1489 61.3839 22.0677 61.7712 24.005 61.7724C25.9423 61.7712 27.86 61.3839 29.6486 60.6327C31.4372 59.8815 33.0607 58.7813 34.427 57.395C35.8007 56.0161 36.8912 54.3769 37.6355 52.5714C38.3797 50.766 38.7632 48.8298 38.764 46.8743V31.0131H31.1876L31.6401 30.4848C32.3611 29.6356 32.9223 28.6604 33.2963 27.6075C33.6399 26.6196 33.8261 25.5827 33.8473 24.5359H32.4178C32.3404 26.6762 31.462 28.7074 29.9595 30.2196C29.1793 31.0091 28.2519 31.6351 27.2312 32.0617C26.2104 32.4884 25.1164 32.7071 24.0116 32.7055C22.9068 32.7071 21.8128 32.4884 20.7921 32.0617C19.7713 31.6351 18.844 31.0091 18.0638 30.2196C16.5621 28.707 15.6844 26.6758 15.6076 24.5359H14.1771C14.198 25.5826 14.3835 26.6193 14.7258 27.6075C15.1002 28.6602 15.6614 29.6353 16.3821 30.4848L16.8357 31.0131H9.25813L9.24485 46.8743ZM19.6293 28.6347C20.2037 29.2156 20.8861 29.6761 21.6373 29.9901C22.3886 30.3041 23.1941 30.4652 24.0072 30.4642C24.8203 30.4654 25.6258 30.3044 26.377 29.9904C27.1283 29.6764 27.8098 29.2158 28.384 28.6347C29.4715 27.5431 30.1184 26.0819 30.1973 24.5359H17.8325C17.9066 26.0794 18.5462 27.5403 19.6271 28.6347H19.6293ZM33.8904 27.8203C33.5656 28.7339 33.1072 29.5934 32.5307 30.3704H38.7806L44.5603 24.5359H34.4823C34.4585 25.6555 34.2576 26.7643 33.8882 27.8203H33.8904ZM15.4804 30.3704C14.9035 29.5937 14.445 28.7341 14.1206 27.8203C13.7532 26.764 13.5555 25.6552 13.5343 24.5359H3.43971L9.21941 30.3704H15.4804ZM33.8473 23.8957H44.5625L39.0096 18.2899L31.8945 21.2633C32.2048 22.1073 32.3793 22.996 32.4112 23.8957H33.8473ZM30.1885 23.8957C30.1585 23.2911 30.041 22.694 29.8411 22.1232L27.0475 23.2918C27.1067 23.4894 27.1467 23.6925 27.1659 23.898L30.1885 23.8957ZM20.8463 23.8957C20.8669 23.6901 20.9073 23.487 20.968 23.2896L18.1722 22.1209C17.9718 22.6916 17.8553 23.2888 17.8259 23.8935L20.8463 23.8957ZM14.166 23.8957H15.601C15.6334 22.9961 15.8078 22.1074 16.1176 21.2633L9.00477 18.2899L8.92069 18.3745L3.44857 23.898L14.166 23.8957ZM21.2081 22.6994C21.3048 22.518 21.4195 22.3464 21.5488 22.1871L19.4091 20.0304C19.0071 20.4799 18.6721 20.986 18.4145 21.533L21.2081 22.6994ZM26.803 22.6994L29.5966 21.5307C29.3398 20.9833 29.0047 20.4771 28.602 20.0281L26.4633 22.1849C26.5937 22.3451 26.7074 22.5184 26.803 22.7019V22.6994ZM26.0142 21.7342L28.1506 19.5753C27.7052 19.1689 27.2043 18.8301 26.6625 18.5691L25.5041 21.3889C25.6847 21.4881 25.8556 21.6044 26.0142 21.7365V21.7342ZM21.9947 21.7342C22.1529 21.6041 22.3231 21.4892 22.5025 21.3911L21.3442 18.5713C20.8035 18.8332 20.3034 19.1719 19.8583 19.5775L21.9947 21.7342ZM23.0867 21.1466C23.2825 21.0873 23.4839 21.0475 23.6874 21.0276V17.9767C23.0882 18.0071 22.4968 18.1256 21.9316 18.3287L23.0867 21.1466ZM24.9222 21.1466L26.0783 18.3265C25.514 18.123 24.9221 18.0045 24.3236 17.9744V21.0254C24.5265 21.0472 24.7271 21.0885 24.9222 21.1488V21.1466ZM16.3577 20.6731C16.7317 19.8558 17.2307 19.1033 17.8369 18.4432L9.24485 9.77047V17.7L16.3577 20.6731ZM31.6522 20.6731L38.7662 17.7V9.77047L30.1741 18.4432C30.7798 19.1037 31.2786 19.857 31.65 20.6753L31.6522 20.6731ZM29.726 17.9903L38.3159 9.31763H30.4618L29.4815 11.7078C29.3335 11.541 29.1632 11.3953 28.9759 11.2753L29.882 9.07278L24.3291 3.46724V15.7328C25.2204 15.7655 26.1005 15.9416 26.9369 16.2543L27.4215 15.0742C27.5802 15.2201 27.7694 15.3287 27.9746 15.3922L27.521 16.4992C28.3284 16.8761 29.072 17.3793 29.7238 17.9903H29.726ZM18.285 17.9903C18.9385 17.3776 19.6844 16.8736 20.4945 16.497L17.5493 9.31763H9.69293L18.285 17.9903ZM21.0797 16.2543C21.916 15.9416 22.7962 15.7655 23.6874 15.7328V3.46724L18.1335 9.07278L21.0797 16.2543ZM22.892 59.1103V52.8436C21.3146 52.6015 19.8559 51.8551 18.7298 50.7143C18.0356 50.0172 17.485 49.1887 17.109 48.2761C16.7329 47.3636 16.5384 46.3852 16.5381 45.3969V38.9928H18.7597V45.3969C18.7599 46.0908 18.8957 46.7778 19.1602 47.4185C19.4246 48.0591 19.8117 48.6405 20.2997 49.1293C20.7842 49.6215 21.3601 50.0122 21.9947 50.2787C22.6293 50.5453 23.311 50.6823 23.9983 50.6822C24.6857 50.6823 25.3662 50.5453 26.0009 50.2787C26.6355 50.0122 27.2114 49.6215 27.6958 49.1293C28.1835 48.6403 28.5703 48.0588 28.8343 47.4182C29.0983 46.7776 29.2338 46.0907 29.2337 45.3969V38.9928H31.4575V45.3969C31.4574 46.385 31.2633 47.3633 30.8877 48.2758C30.5121 49.1884 29.9616 50.017 29.268 50.7143C28.1405 51.8545 26.6814 52.6007 25.1036 52.8436V59.1103H22.892ZM22.892 48.1505V36.2347H16.548V33.9909H31.4664V36.2347H25.1213V48.1505H22.892ZM27.5819 14.7975C27.4743 14.6911 27.3891 14.5639 27.3307 14.4237C27.2724 14.2835 27.2422 14.133 27.2422 13.9809C27.2422 13.8289 27.2724 13.6783 27.3307 13.5381C27.3891 13.3979 27.4743 13.271 27.5819 13.1646C27.7239 13.0231 27.8995 12.9208 28.0919 12.8675C28.2844 12.8142 28.488 12.8117 28.6816 12.8602C28.6897 12.673 28.6407 12.488 28.5411 12.3298C28.4687 12.2198 28.3667 12.1332 28.2468 12.0805V11.2915C28.5885 11.393 28.8997 11.5783 29.1529 11.8312C29.3525 12.0294 29.5106 12.2659 29.6187 12.5266C29.7269 12.7874 29.7826 13.067 29.7825 13.3497C29.7831 13.8118 29.6343 14.2616 29.3587 14.6306C29.317 14.6904 29.2699 14.7463 29.2182 14.7975C29.0008 15.0153 28.7069 15.137 28.4006 15.1359C28.0965 15.1357 27.8051 15.0141 27.5896 14.7975H27.5819Z"
                        fill="#DEB887" />
                    <path
                        d="M75.78 26.4602H74.0628L72.6596 22.7489H67.0465L65.7264 26.4602H64L69.0776 13.2216H70.6839L75.78 26.4602ZM72.1518 21.3549L70.0746 15.7142C70.0069 15.5296 69.9392 15.2341 69.8715 14.8279H69.8346C69.773 15.2034 69.7023 15.4988 69.6223 15.7142L67.5635 21.3549H72.1518Z"
                        fill="#2A3142" />
                    <path
                        d="M86.7615 26.4602H84.6013L79.4868 20.404C79.296 20.1763 79.179 20.0224 79.136 19.9424H79.099V26.4602H77.5481V13.2216H79.099V19.4439H79.136C79.2221 19.3085 79.3391 19.1577 79.4868 18.9915L84.4351 13.2216H86.3646L80.6869 19.5731L86.7615 26.4602Z"
                        fill="#2A3142" />
                    <path
                        d="M100.051 30.0145H98.6202V26.4602H88.3265V13.2216H89.8775V25.0569H96.7276V13.2216H98.2786V25.0569H100.051V30.0145Z"
                        fill="#2A3142" />
                    <path
                        d="M112.842 26.4602H111.291V16.8959C111.291 16.0342 111.322 15.428 111.384 15.0772H111.328C111.211 15.3788 111.07 15.6557 110.903 15.9081L104.09 26.4602H102.17V13.2216H103.721V22.5458C103.721 23.5429 103.696 24.1922 103.647 24.4938H103.684C103.819 24.223 103.992 23.9275 104.201 23.6075L110.848 13.2216H112.842V26.4602Z"
                        fill="#2A3142" />
                    <path
                        d="M121.479 26.6817C119.602 26.6817 118.097 26.0632 116.964 24.8261C115.838 23.589 115.275 21.9796 115.275 19.9978C115.275 17.8683 115.85 16.1696 117.001 14.9018C118.152 13.6339 119.719 13 121.7 13C123.528 13 124.999 13.6155 126.113 14.8464C127.233 16.0773 127.793 17.6868 127.793 19.6747C127.793 21.835 127.221 23.5429 126.076 24.7984C124.932 26.054 123.399 26.6817 121.479 26.6817ZM121.59 14.4033C120.199 14.4033 119.069 14.9049 118.201 15.9081C117.334 16.9113 116.9 18.2284 116.9 19.8593C116.9 21.4903 117.321 22.8043 118.165 23.8014C119.014 24.7923 120.119 25.2877 121.479 25.2877C122.931 25.2877 124.076 24.8138 124.913 23.866C125.75 22.9182 126.169 21.5919 126.169 19.887C126.169 18.1391 125.762 16.7882 124.95 15.8342C124.138 14.8802 123.017 14.4033 121.59 14.4033Z"
                        fill="#2A3142" />
                    <path
                        d="M140.16 26.4602H138.609V20.4225H131.759V26.4602H130.208V13.2216H131.759V19.0285H138.609V13.2216H140.16V26.4602Z"
                        fill="#2A3142" />
                    <path
                        d="M150.458 26.4602H143.442V13.2216H150.163V14.6248H144.993V19.0285H149.775V20.4225H144.993V25.0569H150.458V26.4602Z"
                        fill="#2A3142" />
                    <path
                        d="M154.368 21.4565V26.4602H152.817V13.2216H156.455C157.87 13.2216 158.966 13.5662 159.741 14.2555C160.523 14.9449 160.914 15.9173 160.914 17.1728C160.914 18.4284 160.48 19.4562 159.612 20.2563C158.75 21.0564 157.584 21.4565 156.113 21.4565H154.368ZM154.368 14.6248V20.0532H155.993C157.064 20.0532 157.879 19.8101 158.439 19.3239C159.006 18.8315 159.289 18.1391 159.289 17.2467C159.289 15.4988 158.255 14.6248 156.187 14.6248H154.368Z"
                        fill="#2A3142" />
                    <path
                        d="M173.178 26.4602H171.627V20.4225H164.777V26.4602H163.226V13.2216H164.777V19.0285H171.627V13.2216H173.178V26.4602Z"
                        fill="#2A3142" />
                    <path
                        d="M181.797 26.6817C179.919 26.6817 178.415 26.0632 177.282 24.8261C176.156 23.589 175.593 21.9796 175.593 19.9978C175.593 17.8683 176.168 16.1696 177.319 14.9018C178.47 13.6339 180.036 13 182.018 13C183.846 13 185.317 13.6155 186.431 14.8464C187.551 16.0773 188.111 17.6868 188.111 19.6747C188.111 21.835 187.539 23.5429 186.394 24.7984C185.249 26.054 183.717 26.6817 181.797 26.6817ZM181.907 14.4033C180.516 14.4033 179.387 14.9049 178.519 15.9081C177.652 16.9113 177.218 18.2284 177.218 19.8593C177.218 21.4903 177.639 22.8043 178.482 23.8014C179.332 24.7923 180.436 25.2877 181.797 25.2877C183.249 25.2877 184.394 24.8138 185.231 23.866C186.068 22.9182 186.486 21.5919 186.486 19.887C186.486 18.1391 186.08 16.7882 185.268 15.8342C184.455 14.8802 183.335 14.4033 181.907 14.4033Z"
                        fill="#2A3142" />
                    <path
                        d="M197.542 26.4602H190.526V13.2216H197.247V14.6248H192.077V19.0285H196.859V20.4225H192.077V25.0569H197.542V26.4602Z"
                        fill="#2A3142" />
                    <path
                        d="M215.236 26.6817C213.358 26.6817 211.854 26.0632 210.721 24.8261C209.595 23.589 209.032 21.9796 209.032 19.9978C209.032 17.8683 209.607 16.1696 210.758 14.9018C211.909 13.6339 213.475 13 215.457 13C217.285 13 218.756 13.6155 219.87 14.8464C220.99 16.0773 221.55 17.6868 221.55 19.6747C221.55 21.835 220.978 23.5429 219.833 24.7984C218.688 26.054 217.156 26.6817 215.236 26.6817ZM215.346 14.4033C213.955 14.4033 212.826 14.9049 211.958 15.9081C211.09 16.9113 210.656 18.2284 210.656 19.8593C210.656 21.4903 211.078 22.8043 211.921 23.8014C212.771 24.7923 213.875 25.2877 215.236 25.2877C216.688 25.2877 217.833 24.8138 218.67 23.866C219.507 22.9182 219.925 21.5919 219.925 19.887C219.925 18.1391 219.519 16.7882 218.707 15.8342C217.894 14.8802 216.774 14.4033 215.346 14.4033Z"
                        fill="#2A3142" />
                    <path
                        d="M223.964 26.4602V13.2216H231.036V14.6248H225.515V18.8346H228.027C229.344 18.8346 230.368 19.1546 231.101 19.7947C231.833 20.4286 232.199 21.3334 232.199 22.5089C232.199 23.7275 231.815 24.6907 231.045 25.3985C230.276 26.1063 229.227 26.4602 227.897 26.4602H223.964ZM225.515 20.2378V25.0569H227.694C228.611 25.0569 229.319 24.8415 229.818 24.4107C230.316 23.9799 230.565 23.3767 230.565 22.6012C230.565 21.0256 229.608 20.2378 227.694 20.2378H225.515Z"
                        fill="#2A3142" />
                    <path
                        d="M250.825 30.0145H249.394V26.4602H234.595V13.2216H236.146V25.0569H241.048V13.2216H242.599V25.0569H247.492V13.2216H249.043V25.0569H250.825V30.0145Z"
                        fill="#2A3142" />
                    <path
                        d="M259.96 26.4602H252.944V13.2216H259.665V14.6248H254.495V19.0285H259.277V20.4225H254.495V25.0569H259.96V26.4602Z"
                        fill="#2A3142" />
                    <path
                        d="M271.33 25.9063C270.351 26.4232 269.132 26.6817 267.674 26.6817C265.79 26.6817 264.282 26.0755 263.15 24.863C262.018 23.6506 261.451 22.0596 261.451 20.0901C261.451 17.9729 262.088 16.262 263.362 14.9572C264.636 13.6524 266.252 13 268.209 13C269.465 13 270.505 13.1816 271.33 13.5447V15.1972C270.382 14.6679 269.335 14.4033 268.191 14.4033C266.67 14.4033 265.436 14.911 264.489 15.9265C263.547 16.942 263.076 18.2991 263.076 19.9978C263.076 21.6103 263.516 22.8966 264.396 23.8568C265.283 24.8107 266.443 25.2877 267.877 25.2877C269.206 25.2877 270.357 24.9923 271.33 24.4015V25.9063Z"
                        fill="#2A3142" />
                    <path d="M281.665 14.6248H277.843V26.4602H276.292V14.6248H272.479V13.2216H281.665V14.6248Z"
                        fill="#2A3142" />
                    <path
                        d="M283.562 26.4602V13.2216H287.329C288.474 13.2216 289.381 13.5016 290.052 14.0617C290.723 14.6217 291.059 15.3511 291.059 16.2496C291.059 17.0005 290.855 17.6529 290.449 18.2068C290.043 18.7607 289.483 19.1546 288.769 19.3885V19.4254C289.661 19.5301 290.375 19.8686 290.911 20.4409C291.446 21.0072 291.714 21.7457 291.714 22.6566C291.714 23.7891 291.308 24.7061 290.495 25.4077C289.683 26.1094 288.658 26.4602 287.421 26.4602H283.562ZM285.113 14.6248V18.8992H286.701C287.55 18.8992 288.218 18.6961 288.704 18.2899C289.191 17.8775 289.434 17.299 289.434 16.5543C289.434 15.268 288.587 14.6248 286.895 14.6248H285.113ZM285.113 20.2932V25.0569H287.218C288.129 25.0569 288.834 24.8415 289.332 24.4107C289.837 23.9799 290.089 23.389 290.089 22.6381C290.089 21.0749 289.024 20.2932 286.895 20.2932H285.113Z"
                        fill="#2A3142" />
                    <path
                        d="M299.548 26.6817C297.67 26.6817 296.166 26.0632 295.033 24.8261C293.907 23.589 293.344 21.9796 293.344 19.9978C293.344 17.8683 293.919 16.1696 295.07 14.9018C296.221 13.6339 297.787 13 299.769 13C301.597 13 303.068 13.6155 304.182 14.8464C305.302 16.0773 305.862 17.6868 305.862 19.6747C305.862 21.835 305.29 23.5429 304.145 24.7984C303 26.054 301.468 26.6817 299.548 26.6817ZM299.658 14.4033C298.267 14.4033 297.138 14.9049 296.27 15.9081C295.402 16.9113 294.968 18.2284 294.968 19.8593C294.968 21.4903 295.39 22.8043 296.233 23.8014C297.083 24.7923 298.187 25.2877 299.548 25.2877C301 25.2877 302.145 24.8138 302.982 23.866C303.819 22.9182 304.237 21.5919 304.237 19.887C304.237 18.1391 303.831 16.7882 303.019 15.8342C302.206 14.8802 301.086 14.4033 299.658 14.4033Z"
                        fill="#2A3142" />
                    <path
                        d="M70.9055 51C69.0099 51 67.4651 50.3845 66.2711 49.1536C65.0771 47.9165 64.4801 46.3071 64.4801 44.3253C64.4801 42.2327 65.0863 40.5402 66.2988 39.2477C67.5112 37.9553 69.1176 37.309 71.1178 37.309C73.0073 37.309 74.5336 37.9276 75.6969 39.1646C76.8663 40.4017 77.4509 42.0327 77.4509 44.0576C77.4509 46.1378 76.8447 47.815 75.6323 49.089C74.4259 50.363 72.8504 51 70.9055 51ZM71.0347 39.8755C69.9885 39.8755 69.1576 40.2694 68.5421 41.0572C67.9267 41.8388 67.6189 42.8759 67.6189 44.1684C67.6189 45.4793 67.9267 46.5164 68.5421 47.2795C69.1576 48.0427 69.9638 48.4243 70.9609 48.4243C71.9887 48.4243 72.8042 48.055 73.4074 47.3165C74.0105 46.5717 74.3121 45.5408 74.3121 44.2238C74.3121 42.8513 74.0197 41.7834 73.435 41.0203C72.8504 40.2571 72.0503 39.8755 71.0347 39.8755Z"
                        fill="#2A3142" />
                    <path d="M82.7593 37.2167L80.9775 41.3157H79.1865L80.239 37.2167H82.7593Z" fill="#2A3142" />
                    <path
                        d="M94.6685 50.7692H84.0056V49.0521L90.7911 39.9586H84.4949V37.5306H94.6501V39.2016L88.0123 48.3504H94.6685V50.7692Z"
                        fill="#2A3142" />
                    <path
                        d="M96.6257 50.7692V37.5306H101.445C102.922 37.5306 104.057 37.8014 104.851 38.343C105.645 38.8846 106.042 39.6478 106.042 40.6325C106.042 41.3465 105.799 41.9712 105.313 42.5066C104.833 43.0421 104.217 43.4144 103.467 43.6237V43.6606C104.408 43.7775 105.159 44.1253 105.719 44.7038C106.285 45.2823 106.568 45.9871 106.568 46.8179C106.568 48.0304 106.135 48.9936 105.267 49.7075C104.399 50.4153 103.214 50.7692 101.712 50.7692H96.6257ZM99.6076 39.7278V42.8667H100.919C101.534 42.8667 102.017 42.7189 102.368 42.4235C102.725 42.1219 102.903 41.7096 102.903 41.1864C102.903 40.214 102.177 39.7278 100.725 39.7278H99.6076ZM99.6076 45.0823V48.572H101.223C101.913 48.572 102.451 48.412 102.839 48.0919C103.233 47.7719 103.43 47.3349 103.43 46.781C103.43 46.2517 103.236 45.8363 102.848 45.5347C102.466 45.2331 101.931 45.0823 101.242 45.0823H99.6076Z"
                        fill="#2A3142" />
                    <path
                        d="M116.696 50.7692H108.756V37.5306H116.391V39.9586H111.738V42.9036H116.068V45.3224H111.738V48.3504H116.696V50.7692Z"
                        fill="#2A3142" />
                    <path
                        d="M129.824 50.7692H126.057L122.198 45.0177C122.124 44.9069 122.007 44.6638 121.847 44.2884H121.801V50.7692H118.819V37.5306H121.801V43.7899H121.847C121.921 43.6175 122.044 43.3713 122.217 43.0513L125.872 37.5306H129.427L124.811 43.8452L129.824 50.7692Z"
                        fill="#2A3142" />
                    <path d="M134.08 50.7692H131.098V37.5306H134.08V50.7692Z" fill="#2A3142" />
                    <path
                        d="M136.489 50.2614V47.3072C137.025 47.7565 137.606 48.095 138.234 48.3227C138.862 48.5443 139.496 48.6551 140.136 48.6551C140.511 48.6551 140.837 48.6212 141.114 48.5535C141.398 48.4858 141.631 48.3935 141.816 48.2766C142.007 48.1535 142.148 48.0119 142.241 47.8519C142.333 47.6857 142.379 47.5072 142.379 47.3165C142.379 47.058 142.305 46.8272 142.158 46.6241C142.01 46.421 141.807 46.2332 141.548 46.0609C141.296 45.8886 140.994 45.7224 140.644 45.5624C140.293 45.4024 139.914 45.2393 139.508 45.0731C138.474 44.6423 137.702 44.116 137.191 43.4944C136.686 42.8728 136.434 42.1219 136.434 41.2418C136.434 40.5525 136.572 39.9617 136.849 39.4693C137.126 38.9708 137.502 38.5615 137.976 38.2415C138.456 37.9214 139.01 37.6875 139.637 37.5398C140.265 37.386 140.93 37.309 141.631 37.309C142.321 37.309 142.93 37.3521 143.459 37.4383C143.995 37.5183 144.487 37.6445 144.936 37.8168V40.5771C144.715 40.4233 144.472 40.2879 144.207 40.1709C143.949 40.054 143.681 39.9586 143.404 39.8847C143.127 39.8047 142.85 39.7463 142.573 39.7093C142.302 39.6724 142.044 39.6539 141.798 39.6539C141.459 39.6539 141.151 39.6878 140.874 39.7555C140.597 39.817 140.364 39.9063 140.173 40.0232C139.982 40.1402 139.834 40.2817 139.73 40.4479C139.625 40.6079 139.573 40.7895 139.573 40.9926C139.573 41.2141 139.631 41.4142 139.748 41.5926C139.865 41.765 140.031 41.9312 140.247 42.0912C140.462 42.245 140.724 42.3989 141.031 42.5528C141.339 42.7005 141.687 42.8543 142.075 43.0144C142.604 43.2359 143.078 43.4729 143.496 43.7252C143.921 43.9714 144.284 44.2514 144.586 44.5653C144.887 44.8792 145.118 45.2393 145.278 45.6455C145.438 46.0455 145.518 46.5133 145.518 47.0487C145.518 47.7873 145.377 48.4089 145.093 48.9136C144.816 49.4121 144.438 49.8183 143.958 50.1322C143.478 50.4399 142.918 50.6615 142.278 50.7969C141.644 50.9323 140.973 51 140.265 51C139.539 51 138.846 50.9385 138.188 50.8154C137.536 50.6923 136.969 50.5076 136.489 50.2614Z"
                        fill="#2A3142" />
                    <path d="M156.993 39.9586H153.218V50.7692H150.226V39.9586H146.469V37.5306H156.993V39.9586Z"
                        fill="#2A3142" />
                    <path
                        d="M163.668 51C161.772 51 160.228 50.3845 159.034 49.1536C157.84 47.9165 157.243 46.3071 157.243 44.3253C157.243 42.2327 157.849 40.5402 159.061 39.2477C160.274 37.9553 161.88 37.309 163.88 37.309C165.77 37.309 167.296 37.9276 168.459 39.1646C169.629 40.4017 170.214 42.0327 170.214 44.0576C170.214 46.1378 169.607 47.815 168.395 49.089C167.189 50.363 165.613 51 163.668 51ZM163.797 39.8755C162.751 39.8755 161.92 40.2694 161.305 41.0572C160.689 41.8388 160.382 42.8759 160.382 44.1684C160.382 45.4793 160.689 46.5164 161.305 47.2795C161.92 48.0427 162.726 48.4243 163.723 48.4243C164.751 48.4243 165.567 48.055 166.17 47.3165C166.773 46.5717 167.075 45.5408 167.075 44.2238C167.075 42.8513 166.782 41.7834 166.198 41.0203C165.613 40.2571 164.813 39.8755 163.797 39.8755Z"
                        fill="#2A3142" />
                    <path
                        d="M184.329 50.7692H181.32L175.863 42.4512C175.543 41.965 175.322 41.5988 175.199 41.3526H175.162C175.211 41.8204 175.236 42.5343 175.236 43.4944V50.7692H172.42V37.5306H175.633L180.886 45.5901C181.126 45.9532 181.347 46.3133 181.55 46.6702H181.587C181.538 46.3625 181.513 45.7563 181.513 44.8515V37.5306H184.329V50.7692Z"
                        fill="#2A3142" />
                    <path d="M201.879 39.9586H198.103V50.7692H195.112V39.9586H191.355V37.5306H201.879V39.9586Z"
                        fill="#2A3142" />
                    <path
                        d="M211.6 50.7692H203.661V37.5306H211.296V39.9586H206.643V42.9036H210.973V45.3224H206.643V48.3504H211.6V50.7692Z"
                        fill="#2A3142" />
                    <path
                        d="M228.809 50.7692H225.864V42.8482C225.864 41.9927 225.901 41.048 225.974 40.014H225.901C225.747 40.8264 225.608 41.4111 225.485 41.7681L222.383 50.7692H219.946L216.789 41.8604C216.703 41.6203 216.564 41.0049 216.373 40.014H216.29C216.37 41.3188 216.41 42.4635 216.41 43.4483V50.7692H213.724V37.5306H218.09L220.795 45.3777C221.011 46.0055 221.168 46.6364 221.266 47.2703H221.322C221.488 46.5379 221.663 45.9009 221.848 45.3593L224.553 37.5306H228.809V50.7692Z"
                        fill="#2A3142" />
                    <path d="M234.8 50.7692H231.818V37.5306H234.8V50.7692Z" fill="#2A3142" />
                    <path
                        d="M248.925 50.7692H245.5L243.441 47.3626C243.287 47.1041 243.14 46.8733 242.998 46.6702C242.857 46.4671 242.712 46.2948 242.564 46.1532C242.423 46.0055 242.272 45.8947 242.112 45.8209C241.958 45.7409 241.789 45.7009 241.604 45.7009H240.801V50.7692H237.819V37.5306H242.546C245.759 37.5306 247.365 38.7307 247.365 41.1311C247.365 41.5926 247.294 42.0204 247.153 42.4143C247.011 42.802 246.811 43.1528 246.552 43.4667C246.294 43.7806 245.98 44.0514 245.611 44.2791C245.248 44.5069 244.841 44.6854 244.392 44.8146V44.8515C244.589 44.9131 244.78 45.0146 244.965 45.1562C245.149 45.2916 245.328 45.4516 245.5 45.6362C245.672 45.8209 245.835 46.0209 245.989 46.2363C246.149 46.4456 246.294 46.6518 246.423 46.8549L248.925 50.7692ZM240.801 39.7647V43.4483H242.093C242.734 43.4483 243.247 43.2636 243.635 42.8944C244.029 42.5189 244.226 42.0542 244.226 41.5003C244.226 40.3433 243.534 39.7647 242.149 39.7647H240.801Z"
                        fill="#2A3142" />
                    <path
                        d="M265.376 37.5306L261.065 46.0609V50.7692H258.083V46.1163L253.883 37.5306H257.289L259.422 42.4697C259.459 42.562 259.56 42.9221 259.726 43.5498H259.763C259.843 43.1067 259.939 42.759 260.05 42.5066L262.219 37.5306H265.376Z"
                        fill="#2A3142" />
                    <path
                        d="M271.996 51C270.1 51 268.555 50.3845 267.361 49.1536C266.167 47.9165 265.57 46.3071 265.57 44.3253C265.57 42.2327 266.177 40.5402 267.389 39.2477C268.601 37.9553 270.208 37.309 272.208 37.309C274.098 37.309 275.624 37.9276 276.787 39.1646C277.956 40.4017 278.541 42.0327 278.541 44.0576C278.541 46.1378 277.935 47.815 276.722 49.089C275.516 50.363 273.941 51 271.996 51ZM272.125 39.8755C271.079 39.8755 270.248 40.2694 269.632 41.0572C269.017 41.8388 268.709 42.8759 268.709 44.1684C268.709 45.4793 269.017 46.5164 269.632 47.2795C270.248 48.0427 271.054 48.4243 272.051 48.4243C273.079 48.4243 273.894 48.055 274.498 47.3165C275.101 46.5717 275.402 45.5408 275.402 44.2238C275.402 42.8513 275.11 41.7834 274.525 41.0203C273.941 40.2571 273.14 39.8755 272.125 39.8755Z"
                        fill="#2A3142" />
                    <path d="M283.85 37.2167L282.068 41.3157H280.277L281.329 37.2167H283.85Z" fill="#2A3142" />
                    <path d="M294.115 50.7692H286.231V37.5306H289.213V48.3504H294.115V50.7692Z" fill="#2A3142" />
                    <path d="M303.791 50.7692H295.906V37.5306H298.888V48.3504H303.791V50.7692Z" fill="#2A3142" />
                    <path
                        d="M317.648 50.7692H314.398L313.456 47.8242H308.748L307.816 50.7692H304.584L309.404 37.5306H312.939L317.648 50.7692ZM312.773 45.5347L311.352 41.0849C311.247 40.7525 311.173 40.3556 311.13 39.894H311.056C311.025 40.2817 310.948 40.6664 310.825 41.048L309.385 45.5347H312.773Z"
                        fill="#2A3142" />
                    <path
                        d="M330.406 50.7692H326.981L324.922 47.3626C324.769 47.1041 324.621 46.8733 324.479 46.6702C324.338 46.4671 324.193 46.2948 324.045 46.1532C323.904 46.0055 323.753 45.8947 323.593 45.8209C323.439 45.7409 323.27 45.7009 323.085 45.7009H322.282V50.7692H319.3V37.5306H324.027C327.24 37.5306 328.846 38.7307 328.846 41.1311C328.846 41.5926 328.775 42.0204 328.634 42.4143C328.492 42.802 328.292 43.1528 328.034 43.4667C327.775 43.7806 327.461 44.0514 327.092 44.2791C326.729 44.5069 326.323 44.6854 325.873 44.8146V44.8515C326.07 44.9131 326.261 45.0146 326.446 45.1562C326.63 45.2916 326.809 45.4516 326.981 45.6362C327.154 45.8209 327.317 46.0209 327.47 46.2363C327.63 46.4456 327.775 46.6518 327.904 46.8549L330.406 50.7692ZM322.282 39.7647V43.4483H323.575C324.215 43.4483 324.729 43.2636 325.116 42.8944C325.51 42.5189 325.707 42.0542 325.707 41.5003C325.707 40.3433 325.015 39.7647 323.63 39.7647H322.282Z"
                        fill="#2A3142" />
                    <path d="M334.634 50.7692H331.653V37.5306H334.634V50.7692Z" fill="#2A3142" />
                </svg>
