<svg width="33" height="32" viewBox="0 0 33 32" fill="none" xmlns="http://www.w3.org/2000/svg">
                            <path
                                d="M13.8333 17.3333C14.4059 18.0988 15.1364 18.7322 15.9753 19.1906C16.8142 19.6489 17.7419 19.9215 18.6955 19.9898C19.649 20.0581 20.606 19.9205 21.5017 19.5864C22.3974 19.2523 23.2107 18.7294 23.8866 18.0533L27.8866 14.0533C29.101 12.796 29.7729 11.112 29.7577 9.36399C29.7426 7.61601 29.0414 5.94392 27.8054 4.70787C26.5693 3.47182 24.8972 2.77069 23.1493 2.7555C21.4013 2.74031 19.7173 3.41227 18.4599 4.62666L16.1666 6.90666"
                                stroke="#00A88F" stroke-width="3" stroke-linecap="round" stroke-linejoin="round" />
                            <path
                                d="M19.1667 14.6666C18.5941 13.9011 17.8635 13.2677 17.0246 12.8094C16.1857 12.351 15.258 12.0785 14.3045 12.0102C13.351 11.9419 12.3939 12.0795 11.4982 12.4136C10.6025 12.7477 9.7892 13.2705 9.11336 13.9466L5.11336 17.9466C3.89897 19.204 3.22701 20.888 3.2422 22.636C3.25738 24.384 3.95851 26.056 5.19457 27.2921C6.43062 28.5282 8.1027 29.2293 9.85068 29.2445C11.5987 29.2597 13.2827 28.5877 14.54 27.3733L16.82 25.0933"
                                stroke="#00A88F" stroke-width="3" stroke-linecap="round" stroke-linejoin="round" />
                        </svg>